<!DOCTYPE svg PUBLIC "-//W3C//DTD SVG 1.1//EN" "http://www.w3.org/Graphics/SVG/1.1/DTD/svg11.dtd">
<!-- Uploaded to: SVG Repo, www.svgrepo.com, Transformed by: SVG Repo Mixer Tools -->
<svg fill="#fd226a" height="800px" width="800px" version="1.1" id="Layer_1" xmlns="http://www.w3.org/2000/svg" xmlns:xlink="http://www.w3.org/1999/xlink" viewBox="0 0 512.001 512.001" xml:space="preserve" stroke="#fd226a">
<g id="SVGRepo_bgCarrier" stroke-width="0"/>
<g id="SVGRepo_tracerCarrier" stroke-linecap="round" stroke-linejoin="round"/>
<g id="SVGRepo_iconCarrier"> <g> <g> <path d="M481.997,463.048c-1.389-2.936-4.346-4.807-7.593-4.807h-22.678V304.81c13.673-14.756,21.835-34.599,21.835-56.129 v-24.079c0-18.464-15.021-33.485-33.486-33.485H387.88v-99.12c0-4.639-3.761-8.4-8.4-8.4h-30.241c-4.639,0-8.401,3.761-8.401,8.4 v99.12h-52.08v-99.12c0-4.639-3.761-8.4-8.4-8.4h-30.241c-4.639,0-8.401,3.761-8.401,8.4v99.12h-52.079v-99.12 c0-4.639-3.761-8.4-8.401-8.4h-30.241c-4.639,0-8.401,3.761-8.401,8.4v35.841c0,4.639,3.761,8.401,8.401,8.401 c4.639,0,8.401-3.761,8.401-8.401v-27.44h13.44v90.72h-13.44v-35.279c0-4.639-3.761-8.401-8.401-8.401 c-4.639,0-8.401,3.761-8.401,8.401v35.279H71.922c-18.464,0-33.486,15.021-33.486,33.485v23.148 c0,21.057,7.923,40.835,21.838,55.807v154.683H37.597c-3.247,0-6.204,1.872-7.593,4.807c-1.389,2.936-0.961,6.409,1.098,8.92 l9.431,11.5c14.871,18.133,36.85,28.533,60.302,28.533h310.331c23.451,0,45.43-10.4,60.301-28.533l9.431-11.5 C482.958,469.457,483.386,465.984,481.997,463.048z M357.64,100.397h13.44v90.72h-13.44V100.397z M258.519,100.397h13.44v90.72 h-13.44V100.397z M55.237,247.749v-23.147c0-9.2,7.484-16.684,16.685-16.684h368.153c9.2,0,16.685,7.485,16.685,16.684v24.079 c0,30.098-19.941,56.047-48.49,63.102c-3.851,0.951-8.049,1.414-12.834,1.414c-14.964,0-22.081-4.573-30.321-9.868 c-9.143-5.875-19.506-12.534-39.404-12.534c-19.897,0-30.26,6.659-39.402,12.534c-8.239,5.295-15.355,9.868-30.319,9.868 c-14.963,0-22.079-4.573-30.318-9.868c-9.143-5.875-19.505-12.534-39.401-12.534c-4.639,0-8.4,3.761-8.4,8.401 c0,4.639,3.761,8.4,8.4,8.4c14.963,0,22.079,4.573,30.318,9.868c9.143,5.875,19.505,12.534,39.402,12.534 c19.897,0,30.26-6.659,39.402-12.534c8.239-5.295,15.355-9.868,30.319-9.868c14.965,0,22.081,4.573,30.321,9.868 c9.143,5.876,19.506,12.534,39.403,12.534c6.16,0,11.677-0.623,16.864-1.905c8.155-2.015,15.747-5.255,22.625-9.484v27.626H77.075 v-28.823l0.077,0.049c9.143,5.876,19.506,12.535,39.403,12.535c19.896,0,30.257-6.659,39.399-12.535l0.214-0.138 c3.903-2.508,5.035-7.705,2.526-11.608c-2.508-3.903-7.705-5.035-11.608-2.526l-0.215,0.139 c-8.239,5.295-15.354,9.868-30.317,9.868c-14.964,0-22.08-4.573-30.319-9.869l-0.961-0.617 C66.466,290.657,55.237,270.11,55.237,247.749z M368.841,421.839h66.084v36.402H77.075v-36.402h263.764 c4.639,0,8.4-3.761,8.4-8.401c0-4.639-3.761-8.4-8.4-8.4H77.075v-42h357.85v42h-66.084c-4.639,0-8.401,3.761-8.401,8.4 C360.44,418.078,364.202,421.839,368.841,421.839z M411.166,495.199H100.835c-17.415,0-33.797-7.311-45.393-20.158H456.56 C444.963,487.888,428.582,495.199,411.166,495.199z"/> </g> </g> <g> <g> <path d="M189.283,19.685L172.058,2.46c-3.281-3.281-8.6-3.281-11.879,0l-17.225,17.226c-6.187,6.187-9.596,14.414-9.596,23.165 c0,8.751,3.407,16.978,9.596,23.165c6.387,6.385,14.776,9.579,23.165,9.579c8.389,0,16.779-3.193,23.165-9.58 C202.056,53.242,202.056,32.458,189.283,19.685z M177.404,54.136c-6.223,6.223-16.348,6.223-22.57,0 c-3.014-3.014-4.674-7.023-4.674-11.286c-0.001-4.263,1.659-8.271,4.673-11.285l11.286-11.286l11.286,11.286 C183.626,37.788,183.626,47.913,177.404,54.136z"/> </g> </g> <g> <g> <path d="M288.405,19.685L271.179,2.46c-3.281-3.281-8.6-3.281-11.879,0l-17.225,17.226c-6.187,6.187-9.596,14.414-9.596,23.165 c0,8.751,3.407,16.978,9.596,23.165c6.387,6.385,14.775,9.579,23.165,9.579c8.389,0,16.779-3.193,23.165-9.58 C301.178,53.242,301.178,32.458,288.405,19.685z M276.525,54.136c-6.223,6.223-16.348,6.223-22.57,0 c-3.014-3.014-4.674-7.023-4.674-11.286c-0.002-4.263,1.658-8.271,4.673-11.285l11.286-11.286l11.286,11.286 C282.747,37.788,282.747,47.913,276.525,54.136z"/> </g> </g> <g> <g> <path d="M387.525,19.685L370.299,2.46c-3.281-3.281-8.6-3.281-11.879,0l-17.226,17.224c-6.187,6.187-9.596,14.414-9.596,23.165 c0,8.751,3.407,16.978,9.596,23.165c6.387,6.387,14.776,9.58,23.165,9.58c8.389,0,16.779-3.193,23.165-9.58 C400.298,53.242,400.298,32.458,387.525,19.685z M375.645,54.136c-3.014,3.014-7.023,4.674-11.285,4.674 c-4.263,0-8.271-1.66-11.286-4.674s-4.674-7.023-4.674-11.286c-0.001-4.263,1.659-8.271,4.673-11.285L364.36,20.28l11.286,11.286 C381.867,37.788,381.867,47.913,375.645,54.136z"/> </g> </g> </g>
</svg>