<svg version="1.2" xmlns="http://www.w3.org/2000/svg" viewBox="0 0 17 16" width="23" height="22">
	<title>instagram-svg</title>
	<style>
		.s0 { fill: none;stroke: #ffffff;stroke-linecap: round;stroke-linejoin: round;stroke-width: 1.5 } 
		.s1 { fill: #ffffff } 
		.s2 { fill: none;stroke: #ffffff;stroke-linecap: round } 
	</style>
	<path id="Layer" fill-rule="evenodd" class="s0" d="m11.5 1h-6c-2.2 0-4 1.8-4 4v6c0 2.2 1.8 4 4 4h6c2.2 0 4-1.8 4-4v-6c0-2.2-1.8-4-4-4z"/>
	<path id="Layer" fill-rule="evenodd" class="s0" d="m8.5 11c-1.7 0-3-1.3-3-3 0-1.7 1.3-3 3-3 1.7 0 3 1.3 3 3 0 0.8-0.3 1.6-0.9 2.1-0.5 0.6-1.3 0.9-2.1 0.9z"/>
	<path id="Layer" class="s1" d="m12.5 5c-0.6 0-1-0.4-1-1 0-0.6 0.4-1 1-1 0.6 0 1 0.4 1 1 0 0.6-0.4 1-1 1z"/>
	<path id="Layer" class="s2" d="m12.5 4.5c-0.3 0-0.5-0.2-0.5-0.5 0-0.3 0.2-0.5 0.5-0.5 0.3 0 0.5 0.2 0.5 0.5 0 0.3-0.2 0.5-0.5 0.5z"/>
</svg>