<svg version="1.2" xmlns="http://www.w3.org/2000/svg" viewBox="0 0 514 66" width="514" height="66">
	<title>logo-svg</title>
	<style>
		.s0 { fill: #fd226a } 
		.s1 { fill: #ffffff } 
	</style>
	<g id="Layer">
		<path id="Layer" class="s0" d="m2 1.2c0 0.7-0.3 2.3-0.6 3.5l-0.6 2.3h20.9c24.7 0 29 0.9 36 7.3 5.9 5.4 8.4 11.1 8.5 19.1 0 10.4-5.6 19.2-15.2 23.5-4 1.8-6.6 2.1-23.7 2.1h-19.3v-18.5-18.5h17.5c19.5 0 22.2 0.7 25 6 2.2 4.3 1.9 8.4-1.1 11.9-3.4 4-8.2 5.3-17.9 4.9l-8-0.3-0.3-7.8-0.3-7.7h-3.4-3.5v11 11h14.5c16.3 0 19.5-0.8 23.8-5.9 7.6-9.1 4.9-22.9-5.6-28-4.2-2-5.7-2.1-25.8-1.9l-21.4 0.3-0.3 21c-0.2 11.6 0 22.9 0.3 25.3l0.6 4.3 23.7-0.3c22.8-0.3 23.9-0.4 28.7-2.8 7.3-3.5 13.8-10.5 16.5-17.6 1.8-4.8 2.1-7.3 1.8-13.9-0.5-9.7-3.4-16.1-10.1-22.2-9-8.3-13.3-9.3-39.9-9.3-16 0-20.8 0.3-20.8 1.2z"/>
		<path id="Layer" fill-rule="evenodd" class="s1" d="m203 8h10.1c12.3 0 16 1.4 20 7.8 5 7.9 4.7 16.7-0.8 23.3-4.3 5.1-9.4 6.9-20 6.9h-9.3zm12.3 4h-6.3v30.2l7-0.4c6.3-0.3 7.3-0.7 10.4-3.7 7.2-7 6.4-19.2-1.7-24.1-2.3-1.4-5-2-9.4-2z"/>
		<path id="Layer" class="s1" d="m299 27v19h2.5 2.4l0.3-14.7 0.3-14.7 7.5 14.7c4.6 9 8.1 14.7 9 14.7 0.9 0 4.4-5.6 9-14.5l7.5-14.5 0.3 14.5 0.3 14.5h2.4 2.5v-19-19h-3.3c-3.3 0-3.5 0.2-10.8 14.5-4.1 7.9-7.6 14.5-7.9 14.5-0.3 0-3.8-6.6-7.9-14.5-7.3-14.3-7.5-14.5-10.8-14.5h-3.3z"/>
		<path id="Layer" class="s1" d="m87.3 21.5c-1.3 0.9-2.3 1.1-2.3 0.6 0-0.6-1.1-1.1-2.5-1.1h-2.5v12.5 12.5h2.5c2.5 0 2.5-0.1 2.5-8.5 0-7.9 0.2-8.8 2.6-11.1 1.6-1.7 3.2-2.4 4.5-2.1 1.6 0.4 2 0.1 1.7-1.6-0.4-2.7-3.5-3.3-6.5-1.2z"/>
		<path id="Layer" fill-rule="evenodd" class="s1" d="m120.6 27.5c3 7.2 2.6 7.5-8.6 7.5-10.7 0-11.5 0.5-8.5 4.7 2.1 3 6.6 3.8 10.5 1.8 2.6-1.3 3.4-1.4 4.7-0.4 2.6 2.3-1.9 4.9-8.3 4.9-8.9 0-13.4-4.5-13.4-13.3 0-5.1 2.6-9.2 7.4-11.3 6.1-2.8 13.7 0.1 16.2 6.1zm-16-1.4c-4.7 3.7-3.5 4.9 4.9 4.9 8.2 0 8.9-0.7 5-4.5-3-3-6.4-3.2-9.9-0.4z"/>
		<path id="Layer" fill-rule="evenodd" class="s1" d="m143.4 21.4c4.3 1.8 5.6 5.5 5.6 16.2 0 8.2-0.1 8.4-2.4 8.4-1.3 0-2.6-0.5-2.8-1.1-0.3-0.9-0.9-0.9-2.5 0-6.1 3.2-14.3-0.3-14.3-6.1 0-6.1 4-8.8 12.6-8.8 4.8 0 5.7-1.5 2.8-4.4-2-2-3.7-2-7.5 0-2.4 1.2-3.4 1.3-4.5 0.3-1.8-1.5-0.9-2.8 3-4.5 4-1.7 5.9-1.7 10 0zm-3.6 12.6c-5.4 0.1-7.8 1.4-7.8 4.5 0 3.1 2.9 4.7 7 3.9 3.2-0.7 5-2.9 5-6.3 0-1.8-0.6-2.1-4.2-2.1z"/>
		<path id="Layer" class="s1" d="m163.8 21.8c-3 1.6-3.8 1.7-3.8 0.6 0-0.8-1-1.4-2.5-1.4h-2.5v12.5 12.5h2.5c2.5 0 2.5-0.1 2.5-8.5 0-7.8 0.2-8.8 2.5-11 2.8-2.9 5.1-3.1 8.3-0.9 2 1.4 2.2 2.3 2.2 11 0 9.4 0 9.4 2.5 9.4 2.5 0 2.5-0.1 2.5-8.5 0-7.8 0.2-8.8 2.5-11 2.9-3 5.8-3.2 8.5-0.5 1.7 1.7 2 3.3 2 11 0 8.9 0 9 2.5 9 2.5 0 2.5-0.1 2.5-8.8 0-10.5-1.9-15.2-6.5-16.4-3.4-0.9-8.7 0.5-10.6 2.8-1 1.3-1.5 1.2-3.3-0.6-3.3-3-7.5-3.4-11.8-1.2z"/>
		<path id="Layer" fill-rule="evenodd" class="s1" d="m258.2 21c2.1 0.6 4.2 1.9 4.8 3 0.5 1 1 6.4 1 11.9 0 9.3-0.2 10.1-1.9 10.1-1.1 0-2.1-0.5-2.3-1.1-0.3-0.9-0.9-0.9-2.5 0-1.2 0.6-4 1.1-6.2 1.1-5.4 0-8.1-2.7-8.1-7.8 0-5.6 2.6-7.5 10.6-8 3.5-0.2 6.4-0.7 6.4-1.1 0-0.4-0.7-1.7-1.6-2.9-1.8-2.6-3.8-2.8-7.8-0.7-2.1 1.1-3.2 1.2-4.2 0.4-1.8-1.5-0.9-2.8 3-4.5 3.8-1.6 4.2-1.6 8.8-0.4zm-9.2 14.8c-4.3 3.5 0.5 8.2 6.5 6.2 3.5-1.2 5.5-4.6 4-6.9-1-1.7-8.1-1.3-10.5 0.7z"/>
		<path id="Layer" fill-rule="evenodd" class="s1" d="m366.6 21c4.7 1.8 5.3 3.7 5.4 14.7 0 9.5-0.2 10.3-1.9 10.3-1.1 0-2.1-0.5-2.3-1.1-0.3-0.9-0.9-0.9-2.5 0-1.2 0.6-4 1.1-6.2 1.1-5.4 0-8.1-2.7-8.1-7.8 0-5.6 2.6-7.5 10.6-8 3.5-0.2 6.4-0.7 6.4-1.1 0-0.4-0.7-1.7-1.6-2.9-1.8-2.6-3.8-2.8-7.8-0.7-2.1 1.1-3.2 1.2-4.2 0.4-1.8-1.5-0.9-2.8 3-4.5 3.8-1.6 5.7-1.7 9.2-0.4zm-10 14.9c-3.4 3.8 1.2 8 6.9 6.1 3.2-1.1 5.4-4.8 4-7-1.1-1.8-9.1-1.1-10.9 0.9z"/>
		<path id="Layer" class="s1" d="m387.8 21.9c-3 1.5-3.8 1.6-3.8 0.5 0-0.8-1-1.4-2.5-1.4h-2.5v12.5 12.5h2.5c2.5 0 2.5-0.1 2.5-8.3 0-9.1 1.2-12 5.6-13.1 6.2-1.6 8.4 1.9 8.4 13.4 0 7.9 0 8 2.5 8 2.4 0 2.5-0.2 2.5-6.3-0.1-8.5-1.4-14.6-3.6-16.7-3-2.9-7.4-3.3-11.6-1.1z"/>
		<path id="Layer" fill-rule="evenodd" class="s1" d="m428.8 23.6c2 2.2 2.2 3.6 2.2 12.5 0 9.8 0 9.9-2.4 9.9-1.3 0-2.6-0.6-2.9-1.3-0.4-1-0.7-1-1.8 0-0.7 0.7-3.3 1.3-5.6 1.3-8.1 0-11.9-6.9-7-12.6 2-2.3 3.4-2.8 8.5-3.2 5-0.4 6.2-0.8 6.2-2.1 0-4-4.8-5.3-8.8-2.5-1.8 1.2-2.6 1.3-3.7 0.4-2.2-1.8-1.9-2.4 1.8-4.3 4.4-2.3 10.5-1.4 13.5 1.9zm-7 10.4c-5.8 0-8.3 1.8-7.4 5.3 1.4 5.7 10.8 4 11.4-2.1 0.3-3.2 0.3-3.2-4-3.2z"/>
		<path id="Layer" fill-rule="evenodd" class="s1" d="m453.5 21.4c1.9 0.8 3.5 1.1 3.5 0.5 0-0.5 1.2-0.9 2.6-0.9h2.6l-0.4 15.2c-0.2 13-0.6 15.7-2.2 18.1-3.7 5.4-10.8 7.2-16.6 4.2-3.3-1.7-3.7-2.7-1.6-4.4 1-0.8 1.6-0.8 2.5 0.3 4.3 5.1 13.1-0.3 13.1-8 0-2.1-0.3-2.3-1.9-1.4-2.9 1.5-10.4 1.2-12.9-0.6-5.4-3.7-7-13.8-3-18.9 1.2-1.5 3.5-3.3 5.2-4.1 4-1.7 4.9-1.7 9.1 0zm-10.2 6.4c-1.6 2-1.6 9.2 0 11.3 5 6.5 14.7 2.7 14.7-5.8 0-2.5-0.8-4.3-2.9-6.4-3.9-3.9-8.3-3.6-11.8 0.9z"/>
		<path id="Layer" fill-rule="evenodd" class="s1" d="m488.5 22.6c2.5 1.6 4.5 6.1 4.5 10 0 2.4-0.2 2.4-10 2.4-10.8 0-12.2 0.8-8 5 2.9 2.9 6.3 3.4 10 1.5 2.6-1.3 3.4-1.4 4.7-0.4 1.3 1.2 1.2 1.5-0.7 3.1-2.8 2.3-10.9 2.4-15.1 0.2-8.3-4.2-7.4-19 1.4-23 3.7-1.6 9.7-1.1 13.2 1.2zm-13 3.9c-3.9 3.8-3.2 4.5 5 4.5 8.4 0 9.6-1.2 4.9-4.9-3.5-2.8-6.9-2.6-9.9 0.4z"/>
		<path id="Layer" class="s1" d="m507.5 21.2c-1.1 0.6-2.3 1.6-2.7 2.2-0.5 0.7-0.8 0.4-0.8-0.7 0-1.1-0.8-1.7-2.5-1.7h-2.5v12.5 12.5h2.5c2.5 0 2.5-0.1 2.5-8.5 0-7.9 0.2-8.8 2.6-11.1 1.5-1.6 3.2-2.4 4.4-2.1 2.3 0.6 3.5-2.9 1.3-3.7-2-0.8-2.5-0.7-4.8 0.6z"/>
		<path id="Layer" class="s1" d="m270.4 24.2c8.4 20 8 18.6 6.6 22.8-1.7 5-4.7 8.3-7.1 7.7-2.3-0.6-3.8 3.1-1.8 4.4 5.1 3.2 9.9-1.9 15.8-16.8 1.1-2.7 3.5-8.5 5.5-13.1l3.6-8.3-2.6 0.3c-2.2 0.3-3.1 1.5-5.8 8-1.7 4.3-3.4 7.8-3.7 7.8-0.3 0-2-3.6-3.8-8-2.9-6.9-3.7-8-5.7-8-2.3 0-2.4 0.1-1 3.2z"/>
	</g>
</svg>