<!DOCTYPE svg PUBLIC "-//W3C//DTD SVG 1.1//EN" "http://www.w3.org/Graphics/SVG/1.1/DTD/svg11.dtd">
<!-- Uploaded to: SVG Repo, www.svgrepo.com, Transformed by: SVG Repo Mixer Tools -->
<svg fill="#fd226a" height="800px" width="800px" version="1.1" id="Layer_1" xmlns="http://www.w3.org/2000/svg" xmlns:xlink="http://www.w3.org/1999/xlink" viewBox="0 0 463.002 463.002" xml:space="preserve" stroke="#fd226a">
<g id="SVGRepo_bgCarrier" stroke-width="0"/>
<g id="SVGRepo_tracerCarrier" stroke-linecap="round" stroke-linejoin="round"/>
<g id="SVGRepo_iconCarrier"> <g> <g> <g> <path d="M343.002,239.501v-16.5h8.5c4.142,0,7.5-3.358,7.5-7.5c0-4.142-3.358-7.5-7.5-7.5h-13.594l3-9h2.594 c4.142,0,7.5-3.358,7.5-7.5c0-4.142-3.358-7.5-7.5-7.5h-7.841c-0.011,0-0.022,0-0.033,0h-48.254c-0.01,0-0.02,0-0.03,0h-7.842 c-4.142,0-7.5,3.358-7.5,7.5c0,4.142,3.358,7.5,7.5,7.5h2.594l3,9h-36.741l6.544-39.267c0.362-2.174-0.25-4.398-1.675-6.081 s-3.518-2.652-5.723-2.652h-8.525c0.011-0.166,0.025-0.331,0.025-0.5c0-4.687,3.813-8.5,8.5-8.5c4.142,0,7.5-3.358,7.5-7.5 c0-4.142-3.358-7.5-7.5-7.5c-2.997,0-5.862,0.57-8.5,1.598v-19.832c9.29-3.138,16-11.93,16-22.266 c0-12.958-10.542-23.5-23.5-23.5s-23.5,10.542-23.5,23.5c0,10.335,6.71,19.127,16,22.266v6.916 c-4.802-2.965-10.454-4.681-16.5-4.681c-4.142,0-7.5,3.358-7.5,7.5c0,4.142,3.358,7.5,7.5,7.5c9.098,0,16.5,7.402,16.5,16.5v8 c0,0.169,0.014,0.334,0.025,0.5h-8.525c-2.205,0-4.298,0.97-5.723,2.652c-1.425,1.682-2.038,3.906-1.675,6.081l6.544,39.267 h-36.741l3-9h2.594c4.142,0,7.5-3.358,7.5-7.5c0-4.142-3.358-7.5-7.5-7.5h-7.841c-0.011,0-0.022,0-0.033,0h-48.254 c-0.01,0-0.02,0-0.03,0H119.5c-4.142,0-7.5,3.358-7.5,7.5c0,4.142,3.358,7.5,7.5,7.5h2.594l3,9H111.5c-4.142,0-7.5,3.358-7.5,7.5 c0,4.142,3.358,7.5,7.5,7.5h8.5v16.5c0,8.547,6.953,15.5,15.5,15.5H224v82.234c-9.29,3.138-16,11.93-16,22.266v16.5h-16.5 c-4.142,0-7.5,3.358-7.5,7.5c0,4.142,3.358,7.5,7.5,7.5h80c4.142,0,7.5-3.358,7.5-7.5c0-4.142-3.358-7.5-7.5-7.5H255v-16.5 c0-10.335-6.71-19.127-16-22.266v-82.234h88.502v-0.001C336.049,255.001,343.002,248.048,343.002,239.501z M325.095,199.001l-3,9 h-21.188l-3-9H325.095z M223.002,95.501c0-4.687,3.813-8.5,8.5-8.5c4.687,0,8.5,3.813,8.5,8.5c0,4.687-3.813,8.5-8.5,8.5 C226.815,104.001,223.002,100.188,223.002,95.501z M238.648,175.001l-5.5,33h-3.293l-5.5-33H238.648z M165.096,199.001l-3,9 h-21.188l-3-9H165.096z M240.002,359.501v16.5h-17v-16.5c0-4.687,3.813-8.5,8.5-8.5 C236.189,351.001,240.002,354.814,240.002,359.501z M328.001,239.501c0,0.275-0.224,0.5-0.5,0.5h-192 c-0.275,0-0.499-0.225-0.499-0.5v-16.5h0.474c0.008,0,0.017,0.002,0.025,0.002s0.016-0.002,0.024-0.002h191.953 c0.008,0,0.016,0.002,0.024,0.002s0.016-0.002,0.025-0.002h0.474V239.501z"/> <path d="M103.502,272.001h-73.38l-15.179-121.43c-0.514-4.11-4.265-7.024-8.372-6.512c-4.11,0.514-7.026,4.263-6.512,8.373 l15.942,127.537v31.533v72c0,4.142,3.358,7.5,7.5,7.5s7.5-3.358,7.5-7.5v-32.5h65v32.5c0,4.142,3.358,7.5,7.5,7.5 c4.142,0,7.5-3.358,7.5-7.5v-65.734c9.29-3.138,16-11.93,16-22.266C127.002,282.543,116.46,272.001,103.502,272.001z M96.002,336.001h-65v-17h65V336.001z M103.502,304.001h-72.5v-17h72.5c4.687,0,8.5,3.813,8.5,8.5 S108.189,304.001,103.502,304.001z"/> <path d="M456.432,144.058c-4.115-0.514-7.859,2.402-8.372,6.512L432.881,272h-73.379c-12.958,0-23.5,10.542-23.5,23.5 c0,10.335,6.71,19.127,16,22.266V383.5c0,4.142,3.358,7.5,7.5,7.5c4.142,0,7.5-3.358,7.5-7.5V351h65v32.5 c0,4.142,3.358,7.5,7.5,7.5c4.142,0,7.5-3.358,7.5-7.5v-72v-31.533l15.942-127.537 C463.458,148.321,460.542,144.572,456.432,144.058z M432.002,336.001h-65v-17h65V336.001z M432.002,304.001h-72.5 c-4.687,0-8.5-3.813-8.5-8.5s3.813-8.5,8.5-8.5h72.5V304.001z"/> </g> </g> </g> </g>
</svg>