<svg version="1.2" xmlns="http://www.w3.org/2000/svg" viewBox="0 0 290 492" width="20" height="34">
	<title>left-arrow-back-svgrepo-com-svg</title>
	<style>
		.s0 { fill: #232323;stroke: #232323 } 
	</style>
	<g id="SVGRepo_bgCarrier">
	</g>
	<g id="SVGRepo_tracerCarrier">
	</g>
	<g id="SVGRepo_iconCarrier">
		<g id="Layer">
			<g id="Layer">
				<path id="Layer" class="s0" d="m192.4 245.9l-184.1 184.1c-5 5-7.8 11.8-7.8 19 0 7.2 2.8 14 7.8 19l16.2 16.1c5 5.1 11.8 7.9 19 7.9 7.2 0 14-2.8 19-7.9l219.2-219.1c5.1-5.1 7.8-11.9 7.8-19.1 0-7.2-2.7-14-7.8-19.1l-219-218.9c-5-5.1-11.8-7.9-19-7.9-7.2 0-14 2.8-19 7.9l-16.2 16.1c-10.5 10.5-10.5 27.6 0 38z"/>
			</g>
		</g>
	</g>
</svg>